<svg width="45" height="44" viewBox="0 0 45 44" fill="none" xmlns="http://www.w3.org/2000/svg">
<path fill-rule="evenodd" clip-rule="evenodd" d="M23.7513 0H20.2942V11.7742C20.1964 11.7909 20.0991 11.809 20.0023 11.8284L15.8156 0.82328L12.5844 2.05253L16.7781 13.0761C16.7021 13.1216 16.6267 13.1682 16.552 13.2156L8.73086 4.3842L6.14275 6.6762L13.9882 15.5352L13.9535 15.5796L3.58895 9.8678L1.92035 12.8956L12.3243 18.6291C12.2997 18.7034 12.2759 18.778 12.253 18.853L0.490633 17.1666L0 20.5888L10.629 22.1127L0.0322297 23.8464L0.590446 27.2582L12.4167 25.3233L12.4236 25.3421L1.94094 31.1497L3.61631 34.1737L14.1425 28.3421C14.1807 28.3883 14.2192 28.4342 14.2582 28.4797L6.47149 37.6573L9.10763 39.8939L16.8709 30.7439L12.6293 41.969L15.8633 43.191L20.1361 31.8833C20.1887 31.8931 20.2413 31.9025 20.2942 31.9115V44H23.7513V31.9115C23.8115 31.9013 23.8715 31.8905 23.9313 31.8792L28.2294 43.1771L31.4606 41.9479L27.1693 30.6677C27.2176 30.6395 27.2657 30.6108 27.3136 30.5818L35.3142 39.6159L37.9024 37.3239L29.9469 28.3408L40.4561 34.1323L42.1247 31.1045L31.6296 25.3208C31.6522 25.2585 31.6742 25.1958 31.6956 25.133L43.5546 26.8332L44.0453 23.411L33.4172 21.8873L44.0131 20.1537L43.4549 16.7419L31.7314 18.66L31.7139 18.6072L42.1044 12.8507L40.429 9.8267L30.0778 15.5614C30.0259 15.495 29.9733 15.4293 29.9199 15.3642L37.574 6.3429L34.9378 4.1063L27.3071 13.1L27.2473 13.0641L31.4161 2.03148L28.1822 0.80948L24.0202 11.8238C23.931 11.8061 23.8413 11.7896 23.7513 11.7742V0Z" fill="#6A45FF"/>
</svg>
